<?xml version="1.0" standalone="no"?>
<!DOCTYPE svg PUBLIC "-//W3C//DTD SVG 20010904//EN"
 "http://www.w3.org/TR/2001/REC-SVG-20010904/DTD/svg10.dtd">
<svg version="1.0" xmlns="http://www.w3.org/2000/svg"
 width="500.000000pt" height="500.000000pt" viewBox="0 0 500.000000 500.000000"
 preserveAspectRatio="xMidYMid meet">

<g transform="translate(0.000000,500.000000) scale(0.100000,-0.100000)"
fill="#000000" stroke="none">
<path d="M1237 4710 c-370 -62 -635 -371 -663 -770 -15 -223 54 -417 204 -567
37 -38 274 -231 527 -429 253 -199 491 -390 529 -425 206 -189 339 -486 323
-722 -26 -392 -234 -667 -593 -781 -122 -39 -196 -49 -354 -49 -115 1 -161 5
-225 22 -247 66 -470 242 -578 456 -144 288 -96 705 119 1025 39 58 44 72 34
85 -18 22 -27 19 -63 -22 -135 -153 -210 -297 -269 -515 -33 -122 -31 -324 5
-460 81 -305 256 -522 530 -652 379 -181 940 -148 1267 74 129 88 272 245 346
380 131 239 154 542 63 840 -55 181 -197 401 -351 545 -46 42 -304 252 -574
466 -270 213 -512 412 -538 440 -89 99 -127 203 -127 351 0 114 12 169 57 263
86 182 266 300 479 312 313 18 561 -155 606 -422 12 -70 15 -75 38 -75 l24 0
-6 137 c-4 75 -7 209 -7 299 l0 162 -132 5 c-73 3 -178 12 -233 21 -106 17
-353 20 -438 6z"/>
<path d="M2281 4210 l-1 -275 31 -85 c52 -145 419 -1223 419 -1231 0 -5 -49
-10 -110 -11 l-109 -3 37 -65 38 -65 99 -5 98 -5 74 -215 c171 -500 236 -669
345 -885 140 -278 254 -442 443 -630 255 -256 478 -371 760 -390 109 -7 234 8
378 46 70 19 77 23 77 46 0 21 -4 24 -23 19 -111 -27 -270 -14 -427 36 -109
35 -170 64 -254 121 -224 152 -509 538 -697 947 -105 228 -157 368 -484 1295
-348 987 -394 1112 -475 1281 -53 112 -136 249 -194 319 l-25 30 0 -275z"/>
<path d="M1761 3614 c-53 -127 -90 -229 -85 -233 35 -31 156 -122 158 -119 2
2 49 122 207 531 l19 47 -103 0 -102 0 -94 -226z"/>
<path d="M1337 2598 c-105 -259 -405 -965 -424 -998 -34 -58 -118 -142 -167
-167 l-38 -20 48 -41 49 -42 310 2 c302 3 310 3 310 23 0 17 -9 21 -57 26 -79
9 -117 34 -152 102 -27 53 -28 60 -18 109 8 43 158 439 311 825 l20 52 -88 70
c-49 39 -91 71 -94 71 -3 0 -7 -6 -10 -12z"/>
</g>
</svg>
